<svg xmlns="http://www.w3.org/2000/svg" width="13.145" height="24.995" viewBox="0 0 13.145 24.995">
  <g id="Facebook" transform="translate(-47.682 -57.969)">
    <path id="Path_6" data-name="Path 6" d="M57.541,57.969c.669,0,1.342.036,2.008.066.435.018.87.08,1.278.124L60.8,62.185h-.32c-.441,0-.883-.006-1.325-.006-.331,0-.663,0-.994.014-1.067.036-1.852.436-1.906,1.768-.034.96-.059,3.078-.06,3.19.056,0,1.11,0,2.17,0,.531,0,1.049,0,1.41,0h.862c-.216,1.546-.414,3.029-.63,4.522H56.193l-.086,11.291H51.425l.086-11.309H47.682l.034-4.5h3.847l0-.338c.007-.906,0-1.812.03-2.718a11.241,11.241,0,0,1,.146-1.724,5.115,5.115,0,0,1,2.051-3.358,5.889,5.889,0,0,1,3.375-1.048Q57.354,57.969,57.541,57.969Z" fill="#fff"/>
  </g>
</svg>
