<svg xmlns="http://www.w3.org/2000/svg" width="25.008" height="24.997" viewBox="0 0 25.008 24.997">
  <g id="IG" transform="translate(-200.537 -59.628)">
    <g id="Group_5" data-name="Group 5" transform="translate(218.257 63.976)">
      <path id="Path_2" data-name="Path 2" d="M224,65.016h.018a1.488,1.488,0,0,1,1.485,1.506,1.516,1.516,0,0,1-1.517,1.5,1.5,1.5,0,0,1,.015-3Z" transform="translate(-222.497 -65.016)" fill="#fff"/>
    </g>
    <g id="Group_6" data-name="Group 6" transform="translate(200.537 59.628)">
      <path id="Path_3" data-name="Path 3" d="M225.392,65.9c.186,1.967.306,11.265-.273,13.444a6.4,6.4,0,0,1-5.52,5,61.8,61.8,0,0,1-6.9.278,42.488,42.488,0,0,1-6.948-.369,6.272,6.272,0,0,1-4.978-5.452c-.336-2.109-.371-11.908.237-14.036a6.377,6.377,0,0,1,5.448-4.859,48.728,48.728,0,0,1,6.266-.282c2.334,0,4.688.064,6.1.141a6.889,6.889,0,0,1,4.564,1.867A6.58,6.58,0,0,1,225.392,65.9Zm-2.4,12.49a89.634,89.634,0,0,0,.154-12.279,4.205,4.205,0,0,0-3.744-3.985,57.3,57.3,0,0,0-6.251-.236c-2.489,0-4.968.068-6.058.186a4.284,4.284,0,0,0-3.994,3.765,85.231,85.231,0,0,0-.086,12.621A4.054,4.054,0,0,0,206.094,82a38.7,38.7,0,0,0,6.724.37c2.623,0,5.2-.082,6.166-.189a4.268,4.268,0,0,0,4-3.785" transform="translate(-200.537 -59.628)" fill="#fff"/>
    </g>
    <g id="Group_7" data-name="Group 7" transform="translate(206.63 65.723)">
      <path id="Path_4" data-name="Path 4" d="M214.552,67.181a6.354,6.354,0,0,1,6.357,6.415A6.472,6.472,0,0,1,214.445,80a6.348,6.348,0,0,1-6.357-6.415A6.459,6.459,0,0,1,214.552,67.181Zm-.093,10.552a4.187,4.187,0,0,0,4.181-4.107,4.1,4.1,0,0,0-4.075-4.187h-.037a4.187,4.187,0,0,0-4.181,4.107,4.11,4.11,0,0,0,4.074,4.186h.038" transform="translate(-208.088 -67.181)" fill="#fff"/>
    </g>
  </g>
</svg>
