<svg xmlns="http://www.w3.org/2000/svg" width="337" height="73.399" viewBox="0 0 337 73.399">
  <g id="Youtube_in_Full" data-name="Youtube in Full" transform="translate(-294.526 -1523.334)">
    <path id="Path_16" data-name="Path 16" d="M349.255,1523.348c11.8-.043,23.566-.034,35.452.771,10.21.691,14.53,4.646,15.81,14.845a149.423,149.423,0,0,1-.474,43.772c-1.282,7.557-5.759,11.762-13.394,12.413a464.387,464.387,0,0,1-76.641,0c-8.177-.655-12.6-4.874-13.887-14a141.793,141.793,0,0,1,.266-44.112c1.438-8.332,5.685-11.952,14.173-12.807a185.44,185.44,0,0,1,20.193-.873C336.945,1523.406,343.105,1523.37,349.255,1523.348Zm16.356,36.365-27.92-15.853v31.728Z" transform="translate(0 0)" fill="red"/>
    <g id="Group_50" data-name="Group 50" transform="translate(412.728 1525.785)">
      <path id="Path_17" data-name="Path 17" d="M678.143,1526.759h9.864v23.651a41.981,41.981,0,0,1,4.041-3.539c5.718-3.765,12.829-1.5,13.834,5.192,1.235,8.222,1.2,16.653,1.369,25a28.342,28.342,0,0,1-1.445,8.679c-2.369,7.746-10.345,9.67-16.289,4.064a14.141,14.141,0,0,1-1.38-1.825c-2.165,4.711-3.179,5.066-10,3.765Zm9.782,42.858c0,3.78.059,7.562-.02,11.34-.057,2.687,1.132,4.33,3.789,4.671a3.692,3.692,0,0,0,4.389-3.674c.223-8.819.306-17.659-.093-26.466-.14-3.083-3.657-4.06-5.886-1.8a8.516,8.516,0,0,0-2.084,4.953C687.71,1562.275,687.925,1565.955,687.925,1569.617Z" transform="translate(-521.833 -1526.759)" fill="#080808"/>
      <path id="Path_18" data-name="Path 18" d="M553.175,1554.055h10.277c0,8.088,0,15.97,0,23.853,0,3.779-.011,7.559.037,11.337.028,2.137.482,4.332,3.124,4.314a4.2,4.2,0,0,0,4.5-4.483c.074-5.432.029-10.865.03-16.3,0-6.127,0-12.254,0-18.655h9.982v45.517c-6.208,1.708-7.473,1.081-8.755-4.087-2.379,1.588-4.651,3.759-7.361,4.776-5.586,2.1-10.367-.784-11.453-6.56a43.459,43.459,0,0,1-.617-7.741c-.057-10.274-.009-20.549.009-30.823A8.623,8.623,0,0,1,553.175,1554.055Z" transform="translate(-486.215 -1534.522)" fill="#080808"/>
      <path id="Path_19" data-name="Path 19" d="M647.285,1554.054h10.063v45.936h-7.7l-1.116-5.177c-1.178,1.241-2.112,2.4-3.217,3.356a10.041,10.041,0,0,1-10.605,2.087c-3.609-1.31-5.146-4.266-5.184-7.75-.14-12.711-.055-25.425-.055-38.4h10.076c0,9.606,0,19.026,0,28.445,0,2.125-.066,4.253.031,6.373.1,2.178.353,4.433,3.221,4.692,2.349.212,4.452-2.1,4.468-4.891.045-7.436.016-14.873.017-22.309Z" transform="translate(-507.983 -1534.522)" fill="#080808"/>
      <path id="Path_20" data-name="Path 20" d="M503.968,1576.116c.431-4.151.5-9.037,1.526-13.715,1.519-6.916,6.282-9.959,14.024-9.834,6.958.113,11.853,3.252,12.529,10.088a142.654,142.654,0,0,1,.153,27.079c-.693,7.463-5.769,10.752-13.484,10.815-7.77.063-12.126-3.143-13.575-10.724C504.327,1585.573,504.368,1581.16,503.968,1576.116Zm19.142.554c-.209-4.088-.374-8.206-.645-12.318-.156-2.371-.817-4.726-3.743-4.663-2.7.059-3.447,2.367-3.474,4.565-.1,8.234-.081,16.471.005,24.7.024,2.238.725,4.441,3.514,4.449,2.7.007,3.542-2.063,3.7-4.344C522.745,1584.951,522.9,1580.832,523.11,1576.67Z" transform="translate(-472.295 -1534.098)" fill="#080808"/>
      <path id="Path_21" data-name="Path 21" d="M481.767,1592.832h-9.523a4.363,4.363,0,0,1-.347-1.49c1.736-15.336-3.144-29.587-7.269-43.964-1.62-5.646-3.174-11.311-4.921-17.553,3.254,0,6.168-.161,9.039.117.688.067,1.577,1.519,1.79,2.463,2.095,9.3,4.067,18.624,6.56,28.035q1.739-8.019,3.481-16.038c.884-4.029,1.877-8.037,2.657-12.086.348-1.808,1.028-2.677,3.021-2.552,2.48.155,4.978.037,7.871.037-2.388,8.413-4.4,16.645-7.076,24.663-3.922,11.771-6.078,23.7-5.081,36.115A14.246,14.246,0,0,1,481.767,1592.832Z" transform="translate(-459.707 -1527.61)" fill="#080808"/>
      <path id="Path_22" data-name="Path 22" d="M754.136,1579.894H735.95c.162,3.593,0,7,.617,10.274.238,1.275,2.3,3.194,3.368,3.092,1.42-.135,2.983-1.752,3.9-3.118.708-1.051.522-2.7.788-4.44l8.422.554c.974,7.53-2.068,12.138-8.814,13.694-8.208,1.893-14.736-.714-16.531-7.505a61.78,61.78,0,0,1,0-31.793c1.628-6.182,6.623-8.594,14.428-8.084,6.261.409,9.922,3.325,10.822,9.677C753.758,1567.9,753.753,1573.669,754.136,1579.894Zm-10.023-6.272a107.389,107.389,0,0,0-.941-11.011c-.22-1.224-2.1-3.156-2.97-3.029-1.355.2-3.343,1.726-3.559,2.951-.636,3.623-.536,7.373-.724,11.089Z" transform="translate(-535.337 -1534.08)" fill="#080808"/>
      <path id="Path_23" data-name="Path 23" d="M600.106,1593.119v-54.7h-10.3v-8.237h30.647v8.03H610.413v54.9Z" transform="translate(-496.71 -1527.734)" fill="#080808"/>
    </g>
  </g>
</svg>
