<svg xmlns="http://www.w3.org/2000/svg" width="24.504" height="19.857" viewBox="0 0 24.504 19.857">
  <g id="Twitter" transform="translate(-120.853 -62.751)">
    <path id="Path_5" data-name="Path 5" d="M145.357,65.126a7.831,7.831,0,0,1-.568.77,9.507,9.507,0,0,1-1.833,1.735l-.085.16a13.563,13.563,0,0,1-.111,2.223,14.873,14.873,0,0,1-4.06,8.413,13.509,13.509,0,0,1-6.923,3.846,15.46,15.46,0,0,1-2.8.329q-.227.007-.452.007a14.05,14.05,0,0,1-7.552-2.164l-.121-.075a11.147,11.147,0,0,0,1.178.063,10.191,10.191,0,0,0,3.846-.749,9.953,9.953,0,0,0,2.393-1.4,4.974,4.974,0,0,1-4.635-3.48,4.886,4.886,0,0,0,.931.09,5.286,5.286,0,0,0,1.218-.146l.075-.038a4.99,4.99,0,0,1-3.959-4.962,4.94,4.94,0,0,0,2.228.6,5.024,5.024,0,0,1-1.469-6.67,14.207,14.207,0,0,0,10.3,5.243c-.026-.206-.053-.375-.08-.553a5.07,5.07,0,0,1,4.179-5.543,5.535,5.535,0,0,1,.912-.078,4.838,4.838,0,0,1,3.467,1.475.266.266,0,0,0,.184.086.307.307,0,0,0,.078-.011,9.9,9.9,0,0,0,2.926-1.116l.066-.038a4.947,4.947,0,0,1-2.131,2.73A9.7,9.7,0,0,0,145.357,65.126Z" fill="#fff"/>
  </g>
</svg>
