<svg xmlns="http://www.w3.org/2000/svg" width="34.956" height="24.489" viewBox="0 0 34.956 24.489">
  <path id="Youtube" d="M234.094,216.286c1.252,3.3,1.2,15.321-.3,18.5a4.214,4.214,0,0,1-1.9,1.915c-1.179.608-8.018.9-14.718.9-6.167,0-12.217-.243-13.633-.706a4.046,4.046,0,0,1-2.669-2.608c-1.131-3.192-1.382-16.558.88-19.193a4.368,4.368,0,0,1,2.932-1.549c2.688-.29,7.873-.432,12.986-.432,6.368,0,12.625.221,13.812.65A4.119,4.119,0,0,1,234.094,216.286Zm-20.933,14.343c3.628-1.888,7.241-3.749,10.9-5.637-3.626-1.9-7.211-3.776-10.81-5.664-.028,3.775-.057,7.511-.086,11.3" transform="translate(-200.024 -213.109)" fill="#fff"/>
</svg>
